<?xml version="1.0" encoding="UTF-8"?>
<!-- Generated by Pixelmator Pro 3.7 -->
<svg width="450" height="100" viewBox="0 0 450 100" xmlns="http://www.w3.org/2000/svg">
    <path id="Pediapage" fill="#000000" fill-rule="evenodd" stroke="none" d="M 425.649689 81.398552 C 431.235016 81.398552 435.829376 80.017242 439.432831 77.254616 C 443.036255 74.491989 445.258362 70.948608 446.099152 66.624504 L 437.721161 66.624504 C 437.36084 68.666451 436.174713 70.558243 434.162811 72.299896 C 432.150879 74.041557 429.343231 74.912384 425.739777 74.912384 C 421.655914 74.912384 418.24765 73.471016 415.515076 70.588272 C 412.782471 67.705536 411.416168 63.831848 411.416168 58.96722 L 411.416168 58.696964 L 447 58.696964 L 447 55.363796 C 447 52.120716 446.519531 49.08783 445.558624 46.265148 C 444.597717 43.442463 443.2164 40.995136 441.414703 38.923164 C 439.613007 36.8512 437.375854 35.229652 434.703339 34.05854 C 432.030762 32.887428 428.98288 32.301872 425.559601 32.301872 C 422.016266 32.301872 418.848236 32.932465 416.055573 34.193672 C 413.262939 35.454865 410.905701 37.181511 408.983856 39.373596 C 407.062042 41.565678 405.590637 44.163147 404.569672 47.166 C 403.548676 50.168858 403.038208 53.381908 403.038208 56.805172 C 403.038208 60.228424 403.533691 63.441479 404.524628 66.444336 C 405.515564 69.447189 406.95694 72.059677 408.848724 74.281784 C 410.74054 76.503906 413.097778 78.24556 415.920471 79.50676 C 418.743134 80.767952 421.986237 81.398552 425.649689 81.398552 Z M 425.559601 38.697948 C 429.283173 38.697948 432.376099 39.929123 434.83844 42.391468 C 437.300781 44.853802 438.562012 48.307091 438.62207 52.751312 L 411.506256 52.751312 C 411.866608 48.367149 413.383057 44.928879 416.055573 42.436508 C 418.728119 39.944138 421.896149 38.697948 425.559601 38.697948 Z M 352.319977 84.101128 C 352.680328 86.083008 353.370972 87.959793 354.391937 89.731483 C 355.412933 91.503159 356.79422 93.049629 358.535889 94.370888 C 360.277557 95.692146 362.364532 96.743141 364.796875 97.523888 C 367.229156 98.304626 370.006775 98.694992 373.129791 98.694992 C 380.036316 98.694992 385.426453 96.77317 389.300171 92.929512 C 393.173828 89.085861 395.110687 83.650696 395.110687 76.624016 L 395.110687 33.563065 L 387.273224 33.563065 L 387.273224 41.941032 L 387.183136 41.941032 C 385.801819 38.998234 383.774872 36.656006 381.102356 34.914352 C 378.42981 33.172699 375.111664 32.301872 371.147888 32.301872 C 367.964844 32.301872 365.112152 32.902443 362.589752 34.103584 C 360.067352 35.304726 357.950348 36.941284 356.238708 39.013248 C 354.5271 41.08522 353.205811 43.532547 352.274933 46.355232 C 351.344055 49.177917 350.878632 52.2108 350.878632 55.453884 C 350.878632 58.696964 351.344055 61.759884 352.274933 64.642616 C 353.205811 67.525368 354.542084 70.002716 356.283752 72.074684 C 358.025391 74.14666 360.15744 75.783211 362.67984 76.98436 C 365.20224 78.185493 368.024902 78.786072 371.147888 78.786072 C 374.931488 78.786072 378.129547 77.960281 380.742004 76.308708 C 383.354492 74.657143 385.35141 72.389984 386.732697 69.507248 L 386.822784 69.507248 L 386.822784 77.07444 C 386.822784 81.818947 385.696716 85.512466 383.44458 88.154976 C 381.192444 90.797493 377.75415 92.118744 373.129791 92.118744 C 369.105927 92.118744 366.133118 91.247917 364.211304 89.506256 C 362.289459 87.76461 361.118347 85.962891 360.697968 84.101128 Z M 359.256592 54.372856 C 359.256592 49.568287 360.60788 45.844749 363.310425 43.202236 C 366.013 40.559723 369.256073 39.238461 373.039703 39.238461 C 376.823273 39.238461 380.066345 40.589752 382.768951 43.29232 C 385.471497 45.994892 386.822784 49.6884 386.822784 54.372856 L 386.822784 56.715084 C 386.822784 61.399544 385.471497 65.108063 382.768951 67.840668 C 380.066345 70.573257 376.823273 71.93956 373.039703 71.93956 C 369.256073 71.93956 366.013 70.603287 363.310425 67.930756 C 360.60788 65.258202 359.256592 61.519657 359.256592 56.715084 Z M 304.304352 46.535404 L 312.502106 46.535404 C 312.74234 44.073063 313.763306 42.136227 315.565033 40.72488 C 317.36676 39.313534 319.919189 38.607864 323.222321 38.607864 C 326.885803 38.607864 329.453217 39.388611 330.924622 40.950092 C 332.396057 42.511581 333.131744 44.223202 333.131744 46.084976 C 333.131744 47.886692 332.531158 49.222958 331.330017 50.093784 C 330.128876 50.964619 328.327179 51.610229 325.924896 52.030628 L 318.898193 53.20174 C 314.033569 53.982487 310.099823 55.513947 307.096985 57.796112 C 304.094147 60.078281 302.592682 63.351395 302.592682 67.615448 C 302.592682 71.93956 304.109131 75.317772 307.142029 77.750084 C 310.174927 80.182396 313.973511 81.398552 318.537872 81.398552 C 322.441559 81.398552 325.77475 80.497696 328.537384 78.695984 C 331.299988 76.894272 333.251862 74.552048 334.392914 71.669304 L 334.483002 71.669304 L 334.483002 72.57016 C 334.422943 75.032501 335.023529 76.909286 336.284729 78.200516 C 337.545959 79.491745 339.647949 80.137352 342.590729 80.137352 L 347.905792 80.137352 L 347.905792 73.471016 L 345.023041 73.471016 C 343.881958 73.471016 343.026154 73.230789 342.455627 72.750336 C 341.88504 72.269882 341.599792 71.30896 341.599792 69.867584 L 341.599792 47.796608 C 341.599792 42.571636 339.888184 38.682934 336.464905 36.130508 C 333.041656 33.578087 328.687531 32.301872 323.402466 32.301872 C 317.576965 32.301872 313.042633 33.638138 309.799561 36.31068 C 306.556488 38.983219 304.724731 42.391468 304.304352 46.535404 Z M 333.401978 60.768936 C 333.401978 64.972931 332.155823 68.38118 329.663422 70.99366 C 327.171051 73.606148 323.973022 74.912384 320.069305 74.912384 C 317.306702 74.912384 315.054565 74.251755 313.312866 72.930504 C 311.571228 71.609245 310.700409 69.747475 310.700409 67.3452 L 310.700409 66.804688 C 310.700409 64.582565 311.571228 62.825893 313.312866 61.534672 C 315.054565 60.243439 317.39679 59.35759 320.339569 58.877136 L 327.186096 57.706024 C 328.807648 57.465797 330.14389 57.045399 331.194916 56.444828 C 332.245911 55.844261 332.981598 55.243683 333.401978 54.643112 Z M 253.045593 33.563065 L 253.045593 97.4338 L 261.333466 97.4338 L 261.333466 71.849472 L 261.423553 71.849472 C 262.864929 74.792267 264.921906 77.119484 267.594421 78.831116 C 270.266968 80.54274 273.464996 81.398552 277.188538 81.398552 C 280.371552 81.398552 283.254333 80.767952 285.836761 79.50676 C 288.41922 78.24556 290.596283 76.518906 292.367981 74.326828 C 294.139648 72.134743 295.490936 69.522263 296.421814 66.48938 C 297.352722 63.456493 297.818146 60.228424 297.818146 56.805172 C 297.818146 53.381908 297.352722 50.168858 296.421814 47.166 C 295.490936 44.163147 294.154694 41.565678 292.413025 39.373596 C 290.671356 37.181511 288.509308 35.454865 285.926849 34.193672 C 283.344391 32.932465 280.431641 32.301872 277.188538 32.301872 C 273.284851 32.301872 269.966675 33.202721 267.2341 35.00444 C 264.501495 36.806156 262.444519 39.26849 261.063232 42.391468 L 260.973145 42.391468 L 260.973145 33.563065 Z M 289.440186 55.09354 L 289.440186 58.516792 C 289.440186 63.501537 288.058868 67.405251 285.296265 70.227928 C 282.53363 73.050621 279.230469 74.46196 275.386841 74.46196 C 271.543182 74.46196 268.240021 73.020592 265.477417 70.13784 C 262.714783 67.255112 261.333466 63.38142 261.333466 58.516792 L 261.333466 55.09354 C 261.333466 50.228912 262.714783 46.355232 265.477417 43.472492 C 268.240021 40.589752 271.543182 39.148376 275.386841 39.148376 C 279.230469 39.148376 282.53363 40.544708 285.296265 43.337364 C 288.058868 46.13002 289.440186 50.04874 289.440186 55.09354 Z M 237.190506 80.94812 C 238.932175 80.94812 240.403564 80.347549 241.604706 79.146416 C 242.805847 77.945274 243.406418 76.473862 243.406418 74.732216 C 243.406418 72.990562 242.805847 71.519157 241.604706 70.318016 C 240.403564 69.116875 238.932175 68.516304 237.190506 68.516304 C 235.448853 68.516304 233.977463 69.116875 232.776321 70.318016 C 231.575165 71.519157 230.974594 72.990562 230.974594 74.732216 C 230.974594 76.473862 231.575165 77.945274 232.776321 79.146416 C 233.977463 80.347549 235.448853 80.94812 237.190506 80.94812 Z M 181.787842 46.535404 L 189.985626 46.535404 C 190.225861 44.073063 191.246826 42.136227 193.048553 40.72488 C 194.85025 39.313534 197.402679 38.607864 200.705826 38.607864 C 204.369308 38.607864 206.936752 39.388611 208.408142 40.950092 C 209.879532 42.511581 210.61525 44.223202 210.61525 46.084976 C 210.61525 47.886692 210.014664 49.222958 208.813522 50.093784 C 207.612381 50.964619 205.810684 51.610229 203.408386 52.030628 L 196.381714 53.20174 C 191.517075 53.982487 187.583359 55.513947 184.58049 57.796112 C 181.577621 60.078281 180.076202 63.351395 180.076202 67.615448 C 180.076202 71.93956 181.592636 75.317772 184.625534 77.750084 C 187.658417 80.182396 191.457031 81.398552 196.021362 81.398552 C 199.925079 81.398552 203.25824 80.497696 206.020874 78.695984 C 208.783493 76.894272 210.735367 74.552048 211.87645 71.669304 L 211.966537 71.669304 L 211.966537 72.57016 C 211.906479 75.032501 212.50705 76.909286 213.768234 78.200516 C 215.029434 79.491745 217.131439 80.137352 220.074234 80.137352 L 225.389282 80.137352 L 225.389282 73.471016 L 222.506561 73.471016 C 221.365479 73.471016 220.509644 73.230789 219.939102 72.750336 C 219.368561 72.269882 219.083298 71.30896 219.083298 69.867584 L 219.083298 47.796608 C 219.083298 42.571636 217.371674 38.682934 213.94841 36.130508 C 210.525162 33.578087 206.171021 32.301872 200.886002 32.301872 C 195.060455 32.301872 190.526138 33.638138 187.283051 36.31068 C 184.039978 38.983219 182.208237 42.391468 181.787842 46.535404 Z M 210.885513 60.768936 C 210.885513 64.972931 209.639313 68.38118 207.146942 70.99366 C 204.654587 73.606148 201.456543 74.912384 197.552826 74.912384 C 194.790207 74.912384 192.538055 74.251755 190.796402 72.930504 C 189.054749 71.609245 188.183914 69.747475 188.183914 67.3452 L 188.183914 66.804688 C 188.183914 64.582565 189.054749 62.825893 190.796402 61.534672 C 192.538055 60.243439 194.88028 59.35759 197.823074 58.877136 L 204.669601 57.706024 C 206.291138 57.465797 207.627396 57.045399 208.678406 56.444828 C 209.729401 55.844261 210.465103 55.243683 210.885513 54.643112 Z M 168.63533 25.635536 C 170.256866 25.635536 171.608154 25.080002 172.689178 23.968948 C 173.770203 22.857895 174.310715 21.551643 174.310715 20.050224 C 174.310715 18.42868 173.770203 17.092415 172.689178 16.041405 C 171.608154 14.99041 170.256866 14.464912 168.63533 14.464912 L 168.184906 14.464912 C 166.563354 14.464912 165.212082 14.99041 164.131042 16.041405 C 163.050018 17.092415 162.509506 18.42868 162.509506 20.050224 C 162.509506 21.551643 163.050018 22.857895 164.131042 23.968948 C 165.212082 25.080002 166.563354 25.635536 168.184906 25.635536 Z M 156.834106 40.319496 L 164.22113 40.319496 L 164.22113 80.137352 L 172.509018 80.137352 L 172.509018 33.563065 L 156.834106 33.563065 Z M 150.257858 80.137352 L 150.257858 13.293793 L 141.969971 13.293793 L 141.969971 41.850948 L 141.879883 41.850948 C 140.438522 38.90815 138.381561 36.580944 135.709015 34.869308 C 133.036484 33.157684 129.808411 32.301872 126.024818 32.301872 C 122.841782 32.301872 119.974068 32.932465 117.421631 34.193672 C 114.869202 35.454865 112.707153 37.181511 110.935463 39.373596 C 109.16378 41.565678 107.8125 44.163147 106.881607 47.166 C 105.950722 50.168858 105.485283 53.381908 105.485283 56.805172 C 105.485283 60.228424 105.950722 63.456493 106.881607 66.48938 C 107.8125 69.522263 109.148766 72.134743 110.890427 74.326828 C 112.632072 76.518906 114.779121 78.24556 117.331543 79.50676 C 119.88398 80.767952 122.781731 81.398552 126.024818 81.398552 C 129.988571 81.398552 133.336761 80.482681 136.069351 78.650948 C 138.801956 76.819199 140.858917 74.371872 142.240219 71.30896 L 142.330307 71.30896 L 142.330307 80.137352 Z M 113.863251 58.60688 L 113.863251 55.183624 C 113.863251 50.138828 115.24456 46.220104 118.007187 43.427448 C 120.769806 40.634792 124.072952 39.238461 127.916611 39.238461 C 131.700211 39.238461 134.988327 40.664822 137.780991 43.517536 C 140.573639 46.370247 141.969971 50.258942 141.969971 55.183624 L 141.969971 58.60688 C 141.969971 63.471508 140.573639 67.330185 137.780991 70.182884 C 134.988327 73.035606 131.700211 74.46196 127.916611 74.46196 C 124.072952 74.46196 120.769806 73.08065 118.007187 70.318016 C 115.24456 67.555389 113.863251 63.651676 113.863251 58.60688 Z M 78.549667 81.398552 C 84.134979 81.398552 88.729347 80.017242 92.332771 77.254616 C 95.936203 74.491989 98.15831 70.948608 98.999115 66.624504 L 90.621155 66.624504 C 90.260803 68.666451 89.074677 70.558243 87.062759 72.299896 C 85.050858 74.041557 82.243187 74.912384 78.639755 74.912384 C 74.555878 74.912384 71.147636 73.471016 68.415039 70.588272 C 65.682434 67.705536 64.316132 63.831848 64.316132 58.96722 L 64.316132 58.696964 L 99.899971 58.696964 L 99.899971 55.363796 C 99.899971 52.120716 99.419518 49.08783 98.458595 46.265148 C 97.497688 43.442463 96.116379 40.995136 94.314659 38.923164 C 92.512947 36.8512 90.275826 35.229652 87.603279 34.05854 C 84.93074 32.887428 81.882843 32.301872 78.459579 32.301872 C 74.916214 32.301872 71.748207 32.932465 68.955551 34.193672 C 66.162895 35.454865 63.805653 37.181511 61.88382 39.373596 C 59.961998 41.565678 58.490597 44.163147 57.469627 47.166 C 56.448654 50.168858 55.938168 53.381908 55.938168 56.805172 C 55.938168 60.228424 56.43364 63.441479 57.424587 66.444336 C 58.415524 69.447189 59.856899 72.059677 61.748692 74.281784 C 63.640495 76.503906 65.997734 78.24556 68.820419 79.50676 C 71.643105 80.767952 74.886185 81.398552 78.549667 81.398552 Z M 78.459579 38.697948 C 82.183128 38.697948 85.27607 39.929123 87.738411 42.391468 C 90.200745 44.853802 91.461952 48.307091 91.522003 52.751312 L 64.406219 52.751312 C 64.766563 48.367149 66.283005 44.928879 68.955551 42.436508 C 71.62809 39.944138 74.796104 38.697948 78.459579 38.697948 Z M 4.229004 80.137352 L 12.787141 80.137352 L 12.787141 53.832344 L 31.164616 53.832344 C 37.89101 53.832344 43.070938 52.120716 46.704391 48.69746 C 50.337849 45.274208 52.154575 40.79995 52.154575 35.274696 C 52.154575 29.749443 50.337849 25.275192 46.704391 21.851929 C 43.070938 18.42868 37.89101 16.717049 31.164616 16.717049 L 4.229004 16.717049 Z M 43.416267 35.815208 C 43.416267 39.058292 42.365265 41.640747 40.263264 43.562576 C 38.161266 45.484406 35.0383 46.445316 30.89436 46.445316 L 12.787141 46.445316 L 12.787141 24.104073 L 30.89436 24.104073 C 35.0383 24.104073 38.161266 25.064987 40.263264 26.986816 C 42.365265 28.908646 43.416267 31.491104 43.416267 34.734184 Z"/>
</svg>
